<svg xmlns="http://www.w3.org/2000/svg" viewBox="0 0 25 25"><path d="M11.573 18.615h1.853c.65 0 .973.322.973.92 0 .643-.324.965-.973.965h-1.853c-.649 0-.973-.322-.973-.965 0-.598.324-.92.973-.92Zm-3.8-4.69h9.454c.648 0 .973.322.973.92 0 .643-.325.965-.973.965H7.772c-.648 0-.972-.322-.972-.965 0-.598.324-.92.972-.92ZM5.871 9.19h13.255c.648 0 .972.322.972.965 0 .598-.324.92-.972.92H5.872c-.649 0-.973-.322-.973-.92 0-.643.324-.965.973-.965ZM22 5.465c0 .598-.324.92-.973.92H3.973c-.649 0-.973-.322-.973-.92 0-.643.324-.965.973-.965h17.054c.649 0 .973.322.973.965Z"></path></svg>